{"title":"Dragons.Gift.Of.The.Night.Fury.2011.HQ.DVDRip.XViD.AC3-SIC","uid":6921708,"size":529513022,"categoryP":"video","categoryS":"movies","magnet":"?xt=urn:btih:655674d0707f29e2db94aff914d04393f2b4cedd&amp;dn=Dragons.Gift.Of.The.Night.Fury.2011.HQ.DVDRip.XViD.AC3-SIC&amp;tr=udp%3A%2F%2Ftracker.openbittorrent.com%3A80&amp;tr=udp%3A%2F%2Fopen.demonii.com%3A1337&amp;tr=udp%3A%2F%2Ftracker.coppersurfer.tk%3A6969&amp;tr=udp%3A%2F%2Fexodus.desync.com%3A6969","seeders":1,"leechers":0,"uploader":"TvTeam","files":4,"time":1325297809,"description":". \n &lt;a href=&quot;\nhttp://www.torrenting.com&quot; rel=&quot;nofollow&quot; target=&quot;_NEW&quot;&gt;\nhttp://www.torrenting.com&lt;/a&gt;          :     Once &amp; For all ;)\n\n\n               www . Torrenting . Com \n\n(((((((((((((= Enjoy No RAR releases =))))))))))))))))))))\n\n\n...................................NFO:....................................\n\n.\n\n\n\n\n\nUUUUUUUUUUUUUUUUUUUUUUUU\nUUUUUUUUUUUUUUUUUUUUUUUUUUUUUU\nUUUUUUUUUUUUUUU\nUUUUUUUUU\nUUUUUU\nUUUUUUU\nUUUUUUUUUUU\nUUUUUUUUUUU\nUUUUUUUUUUUUUU\nUUUUUUUUUUU\nUUUUUUUUU\nUUUUUUUU\nUUUUUUUU\nUUUUUUUU\nUUUUUUUUU\nUUUUUUUUU\nUUUUUUUUU\nUUUUUUUUU\nUUUUUUUUUUUUUU\nUUUUUUUUUUUUUUUUUUUUUUUU\nUUUUUUUUUUUUUUUUUUUUUUUUUU\nUUUUUUUUU\n\n\n\n\n\n\n\n\n\n\nU?U?U?U?U?U?U?\n\nEAAUAA?EAAUAAAAAUEAAUAA?AAA?UAAUUAAAAAU\nEAA?  EAA?AAAAAA?EAA?        AAAAAA?\n  AAAU        \n              \nUAAAAAU      UAAAAAUAAAAAA?UAAAAAU        AAAAAA?\n            AAAAAA?UAAAAAUAAAAAA?        UAAAAAU\n                    \n                    \nAAAU      AAAU      AAAAAAAAAUAAAAAAAAAUAAAAAAAAAUAAAU  AAAU   AAAU   AAAAAAAAAU\n\nDragons.Gift.Of.The.Night.Fury.2011.HQ.DVDRip.XViD.AC3-SIC\n\nPoster:\n\nIMDB Link: &lt;a href=&quot;\nhttp://www.imdb.com/title/tt2065968/&quot; rel=&quot;nofollow&quot; target=&quot;_NEW&quot;&gt;\nhttp://www.imdb.com/title/tt2065968/&lt;/a&gt;\n\nDescription:\nAs the village of Berk prepares for its winter holiday, the \nresident dragons all inexplicably fly away. \n\nMediaInfo:\nFormat                           : AVI\nFormat/Info                      : Audio Video Interleave\nFile size                        : 505 MiB\nDuration                         : 22mn 13s\nOverall bit rate                 : 3 178 Kbps\n\nVideo\nID                               : 0\nFormat                           : MPEG-4 Visual\nFormat profile                   : Advanced Simple@L5\nFormat settings, BVOP            : 2\nFormat settings, QPel            : No\nFormat settings, GMC             : No warppoints\nFormat settings, Matrix          : Default (MPEG)\nMuxing mode                      : Packed bitstream\nCodec ID                         : XVID\nCodec ID/Hint                    : XviD\nDuration                         : 22mn 13s\nBit rate                         : 2 850 Kbps\nWidth                            : 656 pixels\nHeight                           : 368 pixels\nDisplay aspect ratio             : 16:9\nFrame rate                       : 23.976 fps\nColor space                      : YUV\nChroma subsampling               : 4:2:0\nBit depth                        : 8 bits\nScan type                        : Progressive\nCompression mode                 : Lossy\nBits/(Pixel*Frame)               : 0.492\nStream size                      : 453 MiB (90%)\nWriting library                  : XviD 64\n\nAudio\nID                               : 1\nFormat                           : AC-3\nFormat/Info                      : Audio Coding 3\nMode extension                   : CM (complete main)\nCodec ID                         : 2000\nDuration                         : 22mn 12s\nBit rate mode                    : Constant\nBit rate                         : 320 Kbps\nChannel(s)                       : 6 channels\nChannel positions                : Front: L C R, Side: L R, LFE\nSampling rate                    : 48.0 KHz\nBit depth                        : 16 bits\nCompression mode                 : Lossy\nStream size                      : 50.8 MiB (10%)\nAlignment                        : Aligned on interleaves\nInterleave, duration             : 64 ms (1.54 video frames)\nInterleave, preload duration     : 192 ms\n\nScreenshots:\n\nNote : \nAlittle short film for the kids, enjoy :)\nSource was DVDR and added afew filters \nCropped, resized, and sharpen... 5.1 Audio,\nset bitrate higher for max video quality \n\nSource: \nDVDR-iGNiTiON (Thanks)\n\nEnjoy!\n\nRespects to T00NG0D, ELEKTRI4KA, PA, YeFsTe, Box, MrRep and everyone in the struggle...","torrent":{"xt":"urn:btih:655674d0707f29e2db94aff914d04393f2b4cedd","amp;dn":"Dragons.Gift.Of.The.Night.Fury.2011.HQ.DVDRip.XViD.AC3-SIC","amp;tr":["udp%3A%2F%2Ftracker.openbittorrent.com%3A80","udp%3A%2F%2Fopen.demonii.com%3A1337","udp%3A%2F%2Ftracker.coppersurfer.tk%3A6969","udp%3A%2F%2Fexodus.desync.com%3A6969"],"infoHash":"655674d0707f29e2db94aff914d04393f2b4cedd","infoHashBuffer":{"type":"Buffer","data":[101,86,116,208,112,127,41,226,219,148,175,249,20,208,67,147,242,180,206,221]},"announce":[],"urlList":[]}}